HIERARCHY
ROOT joint_Root
{
	OFFSET 0.0 0.0 0.0
	CHANNELS 6 Xposition Yposition Zposition Zrotation Xrotation Yrotation 
	JOINT Hips
	{
		OFFSET 4.5925 91.4895 -427.239
		CHANNELS 6 Xposition Yposition Zposition Zrotation Xrotation Yrotation 
		JOINT Spine
		{
			OFFSET 15.7357 0.0 0.0
			CHANNELS 6 Xposition Yposition Zposition Zrotation Xrotation Yrotation 
			JOINT Chest
			{
				OFFSET 8.98455 -0.406207 0.0
				CHANNELS 6 Xposition Yposition Zposition Zrotation Xrotation Yrotation 
				JOINT Neck
				{
					OFFSET 16.3773 0.0 0.0
					CHANNELS 6 Xposition Yposition Zposition Zrotation Xrotation Yrotation 
					JOINT Head
					{
						OFFSET 6.45672 0.0 0.0
						CHANNELS 6 Xposition Yposition Zposition Zrotation Xrotation Yrotation 
						End Site
						{
							OFFSET 0.0 0.0 0.0
						}
					}
				}
				JOINT Shoulder_L
				{
					OFFSET 12.9942 -0.242716 4.98039
					CHANNELS 6 Xposition Yposition Zposition Zrotation Xrotation Yrotation 
					JOINT UpperArm_L
					{
						OFFSET 5.34809 0.0 0.0
						CHANNELS 6 Xposition Yposition Zposition Zrotation Xrotation Yrotation 
						JOINT LowerArm_L
						{
							OFFSET 24.3286 1.87007e-05 0.0
							CHANNELS 6 Xposition Yposition Zposition Zrotation Xrotation Yrotation 
							JOINT Hand_L
							{
								OFFSET 22.2916 0.0 0.0
								CHANNELS 6 Xposition Yposition Zposition Zrotation Xrotation Yrotation 
								End Site
								{
									OFFSET 0.0 0.0 0.0
								}
							}
						}
					}
				}
				JOINT Shoulder_R
				{
					OFFSET 12.9945 -0.242716 -4.98039
					CHANNELS 6 Xposition Yposition Zposition Zrotation Xrotation Yrotation 
					JOINT UpperArm_R
					{
						OFFSET -5.34813 0.0 0.0
						CHANNELS 6 Xposition Yposition Zposition Zrotation Xrotation Yrotation 
						JOINT LowerArm_R
						{
							OFFSET -24.3289 0.000322201 0.0
							CHANNELS 6 Xposition Yposition Zposition Zrotation Xrotation Yrotation 
							JOINT Hand_R
							{
								OFFSET -22.2915 -0.000108084 0.0
								CHANNELS 6 Xposition Yposition Zposition Zrotation Xrotation Yrotation 
								End Site
								{
									OFFSET 0.0 0.0 0.0
								}
							}
						}
					}
				}
			}
		}
		JOINT UpperLeg_L
		{
			OFFSET -2.19248 -6.46944 0.0
			CHANNELS 6 Xposition Yposition Zposition Zrotation Xrotation Yrotation 
			JOINT LowerLeg_L
			{
				OFFSET 39.0811 0.0 -1.23785e-05
				CHANNELS 6 Xposition Yposition Zposition Zrotation Xrotation Yrotation 
				JOINT Foot_L
				{
					OFFSET 40.9854 0.0 -1.26872e-05
					CHANNELS 6 Xposition Yposition Zposition Zrotation Xrotation Yrotation 
					JOINT Toes_L
					{
						OFFSET 11.7543 0.0 0.0
						CHANNELS 6 Xposition Yposition Zposition Zrotation Xrotation Yrotation 
						End Site
						{
							OFFSET 0.0 0.0 0.0
						}
					}
				}
			}
		}
		JOINT UpperLeg_R
		{
			OFFSET -2.19251 6.46944 0.0
			CHANNELS 6 Xposition Yposition Zposition Zrotation Xrotation Yrotation 
			JOINT LowerLeg_R
			{
				OFFSET -39.0811 -0.00228153 -0.0401928
				CHANNELS 6 Xposition Yposition Zposition Zrotation Xrotation Yrotation 
				JOINT Foot_R
				{
					OFFSET -40.9854 0.0 0.0
					CHANNELS 6 Xposition Yposition Zposition Zrotation Xrotation Yrotation 
					JOINT Toes_R
					{
						OFFSET -11.7543 0.0 0.0
						CHANNELS 6 Xposition Yposition Zposition Zrotation Xrotation Yrotation 
						End Site
						{
							OFFSET 0.0 0.0 0.0
						}
					}
				}
			}
		}
	}
}
MOTION
Frames:	4
Frame Time:	0.0333333
0.000000 0.000000 0.000000 0.000000 0.000000 -0.000000 -1.265630 92.364200 2.591140 88.334300 0.467296 0.770113 15.735700 0.000005 -0.000001 64.212000 88.241800 -64.105300 8.984550 -0.406207 -0.000000 -4.599230 -1.539980 0.151799 16.377300 -0.000001 -0.000001 4.293560 -2.289980 1.435710 6.456720 -0.000001 -0.000000 1.193760 -1.646700 1.895850 12.994200 -0.242716 4.980390 -83.353000 -12.125900 -60.979600 5.348090 -0.000007 -0.000001 -67.022100 -64.780600 -109.529000 24.328600 0.000019 0.000005 10.076800 9.486130 -47.156700 22.291600 -0.000001 0.000005 19.963800 5.431370 -3.986260 12.994500 -0.242716 -4.980390 94.820100 -10.959000 -66.079300 -5.348130 -0.000001 -0.000004 -48.660400 -67.886200 -90.985400 -24.328900 0.000322 -0.000009 -5.214330 -5.829200 -41.934600 -22.291500 -0.000108 -0.000004 22.738000 5.577960 -10.103100 -2.192480 -6.469440 -0.000000 -174.303000 -13.654200 -3.155780 39.081100 -0.000007 -0.000012 -0.102599 0.274850 20.470200 40.985400 -0.000006 -0.000013 -0.148443 9.814790 -66.405200 11.754300 -0.000000 0.000003 -0.000159 -0.001526 -16.635500 -2.192510 6.469440 -0.000001 177.688000 26.878300 179.063000 -39.081100 -0.002282 -0.040193 0.005724 -0.007043 18.819900 -40.985400 0.000008 0.000006 6.219620 16.416700 -67.259000 -11.754300 -0.000006 -0.000006 -0.061749 -0.088199 -17.241200
0.000000 0.000000 0.000000 0.000000 0.000000 -0.000000 -1.251960 92.362100 2.608690 88.332900 0.491175 0.788730 15.735700 0.000005 -0.000001 64.479300 88.204800 -64.362000 8.984550 -0.406207 -0.000000 -4.525220 -1.558150 0.173308 16.377300 -0.000001 -0.000001 4.340020 -2.389570 1.345240 6.456720 -0.000001 -0.000000 1.187260 -1.751670 1.808880 12.994200 -0.242716 4.980390 -83.591200 -11.666000 -60.948200 5.348090 -0.000007 -0.000001 -65.035600 -64.150100 -107.593000 24.328600 0.000019 0.000005 9.857670 9.245150 -47.244500 22.291600 -0.000001 0.000005 19.904500 5.421430 -3.646880 12.994500 -0.242716 -4.980390 94.597000 -10.596500 -66.382800 -5.348130 -0.000001 -0.000004 -46.864400 -67.338000 -89.544900 -24.328900 0.000322 -0.000009 -5.427960 -5.934770 -42.576600 -22.291500 -0.000108 -0.000004 22.644900 5.576450 -10.023300 -2.192480 -6.469440 -0.000000 -174.311000 -13.585000 -3.134430 39.081100 -0.000007 -0.000012 -0.102065 0.273283 20.479500 40.985400 -0.000006 -0.000013 -0.144692 9.773530 -66.423000 11.754300 -0.000000 0.000003 -0.000163 -0.001557 -16.636600 -2.192510 6.469440 -0.000001 177.663000 26.927500 179.137000 -39.081100 -0.002282 -0.040193 0.006143 -0.008294 18.775500 -40.985400 0.000008 0.000006 6.315690 16.401000 -67.326600 -11.754300 -0.000006 -0.000006 -0.001149 -0.017497 -17.284700
0.000000 0.000000 0.000000 0.000000 0.000000 -0.000000 -1.228160 92.353100 2.635030 88.369100 0.399592 0.930458 15.735700 0.000005 -0.000001 67.356200 88.142100 -67.249900 8.984550 -0.406207 -0.000000 -4.336100 -1.440660 0.158180 16.377300 -0.000001 -0.000001 4.328010 -2.475900 1.289290 6.456720 -0.000001 -0.000000 1.151870 -1.795830 1.747420 12.994200 -0.242716 4.980390 -83.990100 -11.001500 -61.115300 5.348090 -0.000007 -0.000001 -61.982900 -63.035900 -104.188000 24.328600 0.000019 0.000005 9.204750 8.441760 -47.826600 22.291600 -0.000001 0.000005 19.629600 5.402260 -3.009690 12.994500 -0.242716 -4.980390 94.231500 -9.995400 -66.913000 -5.348130 -0.000001 -0.000004 -43.473300 -66.446800 -86.355300 -24.328900 0.000322 -0.000009 -5.697400 -6.037540 -43.480900 -22.291500 -0.000108 -0.000004 22.322500 5.571720 -9.775880 -2.192480 -6.469440 -0.000000 -174.358000 -13.382200 -2.953770 39.081100 -0.000007 -0.000012 -0.103746 0.277726 20.483500 40.985400 -0.000006 -0.000013 -0.178899 9.479920 -66.465300 11.754300 -0.000000 0.000003 -0.000168 -0.001596 -16.638000 -2.192510 6.469440 -0.000001 177.529000 26.800800 179.369000 -39.081100 -0.002282 -0.040193 0.005788 -0.007285 18.688500 -40.985400 0.000008 0.000006 6.267370 16.397600 -67.411600 -11.754300 -0.000006 -0.000006 -0.000991 -0.015285 -17.194800
0.000000 0.000000 0.000000 0.000000 0.000000 -0.000000 -1.210910 92.322500 2.635360 88.364900 0.212064 1.138230 15.735700 0.000005 -0.000001 71.642800 88.038900 -71.542400 8.984550 -0.406207 -0.000000 -4.042860 -1.244740 0.156939 16.377300 -0.000001 -0.000001 4.181810 -2.505730 1.266790 6.456720 -0.000001 -0.000000 0.895082 -1.875130 1.820780 12.994200 -0.242716 4.980390 -84.513700 -10.121700 -61.342000 5.348090 -0.000007 -0.000001 -58.331500 -61.145400 -99.401600 24.328600 0.000019 0.000005 7.770000 6.722070 -49.379500 22.291600 -0.000001 0.000005 19.021900 5.377430 -2.216460 12.994500 -0.242716 -4.980390 93.782300 -9.072770 -67.254500 -5.348130 -0.000001 -0.000004 -40.671100 -64.481800 -83.306200 -24.328900 0.000322 -0.000009 -6.013790 -6.057320 -44.945800 -22.291500 -0.000108 -0.000004 22.139600 5.563690 -9.370160 -2.192480 -6.469440 -0.000000 -174.361000 -13.139500 -2.846360 39.081100 -0.000007 -0.000012 -0.106405 0.281252 20.723000 40.985400 -0.000006 -0.000013 -0.219659 9.078110 -66.599500 11.754300 -0.000000 0.000003 -0.000196 -0.001822 -16.646300 -2.192510 6.469440 -0.000001 177.438000 26.544900 179.561000 -39.081100 -0.002282 -0.040193 0.005755 -0.007159 18.755400 -40.985400 0.000008 0.000006 6.251330 16.328700 -67.576100 -11.754300 -0.000006 -0.000006 -0.000924 -0.014321 -17.155600
